<svg width="13" height="13" viewBox="0 0 13 13" fill="none" xmlns="http://www.w3.org/2000/svg">
<path d="M6.5 13C10.0899 13 13 10.0899 13 6.5C13 2.91015 10.0899 0 6.5 0C2.91015 0 0 2.91015 0 6.5C0 10.0899 2.91015 13 6.5 13Z" fill="#0E294B"/>
<path d="M4.60767 4.54995C4.76048 4.11553 5.06211 3.74922 5.45914 3.51588C5.85616 3.28255 6.32295 3.19726 6.77683 3.27511C7.23071 3.35296 7.6424 3.58894 7.93897 3.94124C8.23554 4.29354 8.39785 4.73944 8.39717 5.19995C8.39717 6.49995 6.50011 7.36667 6.50011 7.36667" stroke="white" stroke-linecap="round" stroke-linejoin="round"/>
<path d="M6.5 9.75H6.5065" stroke="white" stroke-linecap="round" stroke-linejoin="round"/>
</svg>
