<?xml version="1.0" encoding="iso-8859-1"?>
<!-- Generator: Adobe Illustrator 19.0.0, SVG Export Plug-In . SVG Version: 6.00 Build 0)  -->
<svg version="1.1" id="Layer_1" xmlns="http://www.w3.org/2000/svg" xmlns:xlink="http://www.w3.org/1999/xlink" x="0px" y="0px"
	 viewBox="0 0 512 512" style="enable-background:new 0 0 512 512;" xml:space="preserve">
<g>
	<g>
		<path d="M509.378,471.931l-51.709-100.895c-1.346-2.627-4.05-4.28-7.004-4.28h-30.561l-22.048-43.02h17.684l6.409,12.505
			c1.983,3.868,6.726,5.394,10.593,3.414c3.869-1.983,5.396-6.725,3.414-10.593L277.01,18.533
			c-4.059-7.921-12.11-12.841-21.009-12.841c-8.9,0-16.951,4.92-21.009,12.84L2.622,471.932c-3.782,7.377-3.456,16.005,0.867,23.08
			c4.323,7.073,11.854,11.296,20.144,11.296h148.426c4.347,0,7.869-3.522,7.869-7.87s-3.522-7.869-7.869-7.869h-4.587l9.088-15.739
			h48.243l-9.087,15.739h-1.685c-4.347,0-7.87,3.522-7.87,7.869s3.522,7.87,7.87,7.87h274.337c8.29,0,15.821-4.222,20.144-11.296
			C512.834,487.937,513.159,479.31,509.378,471.931z M445.856,382.495l9.141,17.838h-17.684l-9.141-17.838H445.856z
			 M407.675,307.997h-17.684l-9.142-17.837h17.684L407.675,307.997z M390.466,274.42h-17.684l-22.048-43.02h17.684L390.466,274.42z
			 M360.353,215.662h-17.685l-9.141-17.837h17.684L360.353,215.662z M343.144,182.085H325.46l-22.048-43.02h17.684L343.144,182.085z
			 M313.03,123.326h-17.684l-9.141-17.837h17.684L313.03,123.326z M248.998,25.71c2.875-5.612,11.131-5.61,14.006,0.001
			l32.82,64.039h-17.684l-15.135-29.531c-2.87-5.596-11.137-5.597-14.008,0L233.862,89.75h-17.685L248.998,25.71z M208.111,105.489
			h17.685l-9.142,17.837h-17.685L208.111,105.489z M190.902,139.065h17.685l-22.048,43.02h-17.685L190.902,139.065z
			 M160.788,197.824h17.685l-9.142,17.837h-17.684L160.788,197.824z M143.58,231.4h17.685l-22.048,43.02h-17.685L143.58,231.4z
			 M113.468,290.159h17.684l-9.142,17.837h-17.684L113.468,290.159z M96.259,323.736h17.685l-22.048,43.02H74.211L96.259,323.736z
			 M66.145,382.495h17.684l-9.141,17.838H57.004L66.145,382.495z M95.99,490.569H23.633c-3.983,0-6.023-2.634-6.714-3.766
			c-0.693-1.132-2.106-4.149-0.289-7.693l32.308-63.039h17.685l-24.241,47.3c-2.638,5.148,1.231,11.459,7.004,11.459h55.691
			L95.99,490.569z M149.298,490.569h-35.136l9.087-15.739h35.137L149.298,490.569z M62.26,459.091L256,81.064l193.74,378.027H62.26z
			 M269.024,490.569h-35.136l9.087-15.739h35.136L269.024,490.569z M335.441,490.569h-48.243l9.087-15.739h48.243L335.441,490.569z
			 M388.75,490.569h-35.136l9.087-15.739h35.137L388.75,490.569z M495.082,486.803c-0.691,1.132-2.732,3.766-6.714,3.766h-81.443
			l9.088-15.739h46.604c5.773,0,9.642-6.311,7.004-11.459l-24.241-47.3h17.685l32.307,63.038
			C497.188,482.654,495.774,485.671,495.082,486.803z"/>
	</g>
</g>
<g>
	<g>
		<path d="M273.193,182.494c-5.019-1.685-10.373,2.177-10.373,7.46v42.193h-13.64v-42.193c0-5.282-5.354-9.15-10.373-7.46
			c-22.038,7.394-36.844,27.981-36.844,51.227c0,21.859,12.851,41.114,32.527,49.592v89.213c0,4.347,3.522,7.87,7.869,7.87h27.281
			c4.347,0,7.87-3.522,7.87-7.87v-89.213c19.676-8.478,32.527-27.733,32.527-49.592
			C310.037,210.475,295.231,189.888,273.193,182.494z M267.318,270.32c-3.299,1.019-5.547,4.067-5.547,7.519v86.818h-11.542v-86.818
			c0-3.452-2.25-6.5-5.547-7.519c-16.138-4.984-26.98-19.692-26.98-36.598c0-12.484,6.024-23.885,15.739-30.958v37.253
			c0,4.347,3.522,7.869,7.869,7.869h29.379c4.347,0,7.87-3.522,7.87-7.869v-37.253c9.715,7.072,15.739,18.472,15.739,30.958
			C294.298,250.628,283.456,265.336,267.318,270.32z"/>
	</g>
</g>
<g>
	<g>
		<path d="M269.64,391.938h-27.281c-4.347,0-7.87,3.522-7.87,7.869v27.281c0,4.347,3.522,7.869,7.87,7.869h27.281
			c4.347,0,7.869-3.522,7.869-7.869v-27.281C277.51,395.46,273.987,391.938,269.64,391.938z M261.771,419.219h-11.542v-11.542
			h11.542V419.219z"/>
	</g>
</g>
<g>
</g>
<g>
</g>
<g>
</g>
<g>
</g>
<g>
</g>
<g>
</g>
<g>
</g>
<g>
</g>
<g>
</g>
<g>
</g>
<g>
</g>
<g>
</g>
<g>
</g>
<g>
</g>
<g>
</g>
</svg>
