<svg width="177" height="40" viewBox="0 0 177 40" fill="none" xmlns="http://www.w3.org/2000/svg">
<g clip-path="url(#clip0_326_212)">
<path d="M19.8508 33.7269C22.716 36.0988 26.0848 37.7726 29.6953 38.6185C31.7564 38.9853 34.1084 38.8956 35.8058 37.526C36.4958 36.8798 37.0285 36.0815 37.3621 35.1934C37.6958 34.3053 37.8215 33.3514 37.7294 32.4062C36.2018 35.121 33.1062 36.5722 30.1075 36.6537C27.7555 36.4906 25.7753 34.9498 24.1588 33.3356C21.047 30.0746 18.8162 26.1451 16.8845 22.1015C13.7295 15.0446 11.4962 7.60436 10.2406 -0.0325928C8.41149 2.19721 7.35307 4.96778 7.22582 7.85904C7.03175 11.6544 7.67208 15.4462 9.10098 18.9628C11.3462 24.7456 15.0521 29.8355 19.8508 33.7269Z" fill="#B38640"/>
<path d="M33.397 34.7867C34.41 34.3504 35.2978 33.6639 35.9786 32.7906C36.6594 31.9172 37.1114 30.8851 37.2928 29.7893C37.4197 27.8751 36.9445 25.9693 35.9349 24.3434C35.4581 29.0555 32.7019 34.0856 27.9009 35.3574C29.7033 36.1401 31.732 35.5775 33.397 34.7867Z" fill="#0F2A4B"/>
<path d="M30.9964 13.8267C31.3924 15.8729 32.039 17.8622 32.2734 19.941C32.8928 24.6195 31.8413 29.3677 29.3071 33.3356C35.9752 29.5284 37.0421 18.7182 30.9964 13.8267Z" fill="#0F2A4B"/>
<path d="M6.7006 38.5125C11.0167 39.9147 15.6399 39.9147 20.1257 39.6946C16.0117 38.8793 11.8654 37.6402 8.45452 35.0232C6.69541 33.7319 5.21506 32.0932 4.10348 30.2068C2.99189 28.3204 2.27231 26.2256 1.98847 24.0499C0.477031 26.7321 -0.565619 30.0339 0.371958 33.0829C1.3257 35.9037 4.02528 37.6157 6.7006 38.5125Z" fill="#0F2A4B"/>
<path d="M11.049 34.4362C15.9373 37.9246 21.8831 39.5747 27.8526 39.0994C21.8747 37.6613 16.5237 34.2987 12.6089 29.5203C8.85858 24.9467 6.66821 19.2481 5.60939 13.4517C4.57733 14.8603 3.85285 16.4735 3.48367 18.1851C3.11448 19.8966 3.10898 21.6676 3.46752 23.3814C4.41318 27.9061 7.38756 31.7622 11.049 34.4362Z" fill="#0F2A4B"/>
<path d="M44.7612 28.5664C44.7284 27.1724 44.975 25.7862 45.4863 24.4907C45.9977 23.1953 46.7631 22.0174 47.7368 21.0276C48.7105 20.0379 49.8724 19.2567 51.1527 18.731C52.4331 18.2053 53.8055 17.9458 55.1877 17.9681C60.8455 17.9681 65.6384 21.1639 65.6384 28.5664C65.6585 29.9517 65.4008 31.3267 64.8808 32.609C64.3607 33.8913 63.5891 35.0543 62.6122 36.0282C61.6353 37.0021 60.4734 37.7668 59.1961 38.2764C57.9189 38.7859 56.5527 39.0298 55.1796 38.9934C48.956 38.9934 44.7612 35.4634 44.7612 28.5664ZM61.3547 28.5664C61.3547 21.7509 58.2429 19.2318 55.1554 19.2318C52.278 19.2318 49.0207 21.6286 49.0207 28.5664C49.0207 35.3493 52.0759 37.8113 55.1877 37.8113C58.2995 37.8113 61.3466 35.3737 61.3466 28.5012L61.3547 28.5664Z" fill="#0F2A4B"/>
<path d="M67.9015 38.0151L68.9846 37.7216C70.1566 37.3955 70.3667 37.1917 70.3667 34.697V22.346C70.3667 19.9002 70.1646 19.6475 68.9846 19.3214L67.9015 19.0279V18.5225H78.4089C84.6648 18.5225 89.1829 21.1557 89.1829 28.0609C89.1829 34.64 83.7757 38.5206 77.5521 38.5206H67.853L67.9015 38.0151ZM76.9136 37.1999C81.3752 37.1999 84.786 34.5014 84.786 28.3707C84.786 22.9493 82.3208 19.7779 77.3824 19.7779H74.3352V34.159C74.3352 36.9471 74.6909 37.208 75.9518 37.208L76.9136 37.1999Z" fill="#0F2A4B"/>
<path d="M94.8892 38.0151L95.948 37.7216C97.1523 37.3955 97.3544 37.1917 97.3544 34.697V31.0529C97.4528 30.1491 97.2104 29.241 96.6755 28.5093L92.9494 22.346C91.5673 20.0633 91.1551 19.5904 90.4519 19.2969L89.7729 19.0279V18.5225H98.5829V19.0279L97.2655 19.3214C96.0612 19.5904 96.0046 20.21 97.2655 22.346L100.498 27.7348L103.141 23.0553C104.637 20.3894 104.758 19.5904 103.578 19.3214L102.212 19.0279V18.5225H108.791V19.0279L108.112 19.2969C107.199 19.6557 106.851 20.2426 105.38 22.6721L101.945 28.3788C101.427 29.0972 101.186 29.9809 101.266 30.8654V34.697C101.266 37.1835 101.468 37.3955 102.673 37.7216L103.732 38.0151V38.5206H94.8407L94.8892 38.0151Z" fill="#0F2A4B"/>
<path d="M110.513 38.0723L109.705 33.5965L110.295 33.3927L111.03 35.0232C111.402 35.8231 112.004 36.4913 112.758 36.9406C113.512 37.39 114.383 37.5997 115.257 37.5423C117.375 37.5423 119.396 36.4173 119.396 33.9878C119.396 32.0068 117.779 30.9388 116.163 30.1643L114.336 29.3165C112.283 28.3382 110.254 26.7403 110.254 23.9847C110.254 20.1367 113.544 18.0905 116.922 18.0905C118.539 18.0952 120.141 18.3963 121.651 18.9791V23.4793H121.004L120.624 21.7346C120.39 20.6666 119.363 19.4519 116.744 19.4519C115.039 19.4519 113.342 20.4302 113.342 22.3868C113.342 24.3434 115.16 25.1424 116.688 25.9087L118.482 26.7647C120.535 27.7756 122.596 29.4877 122.596 32.3329C122.596 36.8086 118.959 39.0261 115.136 39.0261C113.549 39.0052 111.98 38.6816 110.513 38.0723Z" fill="#0F2A4B"/>
<path d="M126.048 38.0723L125.239 33.5965L125.854 33.4172L126.589 35.0477C126.961 35.8475 127.563 36.5157 128.317 36.9651C129.071 37.4145 129.942 37.6242 130.816 37.5668C132.934 37.5668 134.954 36.4417 134.954 34.0123C134.954 32.0312 133.338 30.9633 131.721 30.1888L129.895 29.3165C127.842 28.3382 125.813 26.7403 125.813 23.9847C125.813 20.1367 129.103 18.0905 132.481 18.0905C134.098 18.0952 135.7 18.3963 137.21 18.9791V23.4793H136.563L136.159 21.7265C135.924 20.6585 134.898 19.4438 132.279 19.4438C130.574 19.4438 128.876 20.4221 128.876 22.3787C128.876 24.3353 130.695 25.1342 132.223 25.9006L134.017 26.7566C136.07 27.7675 138.131 29.4795 138.131 32.3247C138.131 36.8005 134.486 39.0179 130.671 39.0179C129.084 38.9997 127.516 38.6788 126.048 38.0723Z" fill="#0F2A4B"/>
<path d="M140.847 38.0151L141.93 37.7216C143.102 37.3955 143.312 37.1917 143.312 34.697V22.346C143.312 19.9002 143.11 19.6475 141.93 19.3214L140.847 19.0279V18.5225H155.088V22.5987H154.474L154.118 21.2699C153.827 20.1774 153.181 19.8758 149.891 19.8758H147.28V27.3109H149.899C152.599 27.3109 153.011 27.2212 153.302 26.1858L153.625 25.0934H154.151V31.0447H153.625L153.27 29.7974C152.979 28.762 152.591 28.6723 149.891 28.6723H147.248V34.1508C147.248 36.939 147.604 37.1999 148.865 37.1999H150.594C153.617 37.1999 154.474 36.7515 155.056 35.5123L155.702 34.1182L156.317 34.265L155.436 38.5287H140.847V38.0151Z" fill="#0F2A4B"/>
<path d="M163.082 38.0151L164.14 37.7216C165.345 37.3955 165.547 37.1917 165.547 34.697V31.0529C165.645 30.1491 165.403 29.241 164.868 28.5093L161.142 22.346C159.76 20.0633 159.347 19.5904 158.644 19.2969L157.965 19.0279V18.5225H166.775V19.0279L165.458 19.3214C164.254 19.5904 164.197 20.21 165.458 22.346L168.691 27.7348L171.334 23.0553C172.829 20.3894 172.95 19.5904 171.77 19.3214L170.453 19.0279V18.5225H177.032V19.0279L176.353 19.2969C175.44 19.6557 175.092 20.2426 173.621 22.6721L170.186 28.3788C169.668 29.0972 169.427 29.9809 169.507 30.8654V34.697C169.507 37.1835 169.709 37.3955 170.914 37.7216L171.972 38.0151V38.5206H163.082V38.0151Z" fill="#0F2A4B"/>
</g>
<defs>
<clipPath id="clip0_326_212">
<rect width="177" height="39.825" fill="white"/>
</clipPath>
</defs>
</svg>
